<svg xmlns="http://www.w3.org/2000/svg" width="966" height="224"><defs><linearGradient id="a" x1="50%" x2="50%" y1="100%" y2="0%"><stop offset="0%" stop-color="#FFE800"/><stop offset="100%" stop-color="#FC0"/></linearGradient><linearGradient id="b" x1="50%" x2="50%" y1="100%" y2="0%"><stop offset="0%" stop-color="#FF0062"/><stop offset="100%" stop-color="#F03"/></linearGradient><linearGradient id="c" x1="50%" x2="50%" y1="100%" y2="0%"><stop offset="0%" stop-color="#43DDD5"/><stop offset="100%" stop-color="#54C3BD"/></linearGradient></defs><g fill="none" fill-rule="evenodd"><path stroke="#000" stroke-linecap="square" d="M1 223.25h964" opacity=".25"/><text fill="#4A4A4A" font-family="NeutrafaceText-Book, Neutraface Text" font-size="17" font-weight="300" transform="translate(1 188)"><tspan x="15" y="25.5">0</tspan></text><path stroke="#000" stroke-linecap="square" d="M1 182.25h964" opacity=".25"/><text fill="#4A4A4A" font-family="NeutrafaceText-Book, Neutraface Text" font-size="17" font-weight="300" transform="translate(1 147)"><tspan x="15" y="25.5">1</tspan></text><path stroke="#000" stroke-linecap="square" d="M1 142.25h964" opacity=".25"/><text fill="#4A4A4A" font-family="NeutrafaceText-Book, Neutraface Text" font-size="17" font-weight="300" transform="translate(1 107)"><tspan x="15" y="25.5">2</tspan></text><path stroke="#000" stroke-linecap="square" d="M1 100.25h964" opacity=".25"/><text fill="#4A4A4A" font-family="NeutrafaceText-Book, Neutraface Text" font-size="17" font-weight="300" transform="translate(1 65)"><tspan x="15" y="25.5">3</tspan></text><path stroke="#000" stroke-linecap="square" d="M1 60.25h964" opacity=".25"/><text fill="#4A4A4A" font-family="NeutrafaceText-Book, Neutraface Text" font-size="17" font-weight="300" transform="translate(1 25)"><tspan x="15" y="25.5">4</tspan></text><path stroke="#000" stroke-linecap="square" d="M1 19.25h964" opacity=".25"/><text fill="#4A4A4A" font-family="NeutrafaceText-Book, Neutraface Text" font-size="17" font-weight="300" transform="translate(1 -16)"><tspan x="15" y="25.5">5</tspan></text><path fill="url(#a)" d="M95 117h83v123H95z" transform="translate(1 -16)"/><path fill="url(#b)" d="M441 36h83v204h-83zm172 0h83v204h-83zm173 0h83v204h-83z" transform="translate(1 -16)"/><path fill="url(#c)" d="M268 199h83v41h-83z" transform="translate(1 -16)"/><path stroke="#4A4A4A" stroke-linecap="square" d="M1 223.5h964"/></g></svg>